<svg id="Layer_1" data-name="Layer 1" xmlns="http://www.w3.org/2000/svg" viewBox="0 0 615.3 245.5"><title>final</title><g style="opacity:0.2"><rect x="146.1" y="159" width="293.2" height="54" style="fill:#72c594"/><ellipse cx="146.9" cy="186" rx="17.8" ry="27" style="fill:#fff;stroke:#72c594;stroke-miterlimit:10;stroke-width:1.04523869262517px"/><ellipse cx="439.2" cy="186" rx="17.8" ry="27" style="fill:#fff;stroke:#72c594;stroke-miterlimit:10;stroke-width:1.04523869262517px"/></g><path d="M96.9,204V149.3a4.3,4.3,0,0,0-4.3-4.3H10.1a4.3,4.3,0,0,0-4.3,4.3V204H0c.5,3.9,3.2,7,6.5,7H95.8c3.2,0,6-3.1,6.5-7ZM10.7,149.9H92V204H10.7Z" style="fill:#72c594"/><path d="M598,173.7a32.1,32.1,0,0,0-62-10.4,19.7,19.7,0,0,0-25.6,18.8,18.4,18.4,0,0,0,.4,4.1,13.5,13.5,0,0,0,2.6,26.8h82.2a19.7,19.7,0,0,0,2.4-39.3Zm-2.4,34.5H513.4a8.8,8.8,0,0,1,0-17.5h.2l3.9.2-1.3-3.5a14,14,0,0,1-1-5.4,14.9,14.9,0,0,1,14.9-14.9,15.7,15.7,0,0,1,6.4,1.4l2.5,1.2.8-2.6a27.3,27.3,0,0,1,53.4,7.9v3.2h2.4a15,15,0,1,1,0,29.9Z" style="fill:#72c594"/><line x1="494.1" y1="170" x2="97.1" y2="171.6" style="fill:none;stroke:#aaa;stroke-miterlimit:10;stroke-width:2.10530018806458px"/><polygon points="487.1 161.4 485.7 162.9 493.3 170 485.7 177.1 487.2 178.6 496.4 170 487.1 161.4" style="fill:#aaa"/><line x1="115.4" y1="204.6" x2="500.1" y2="203" style="fill:none;stroke:#aaa;stroke-miterlimit:10;stroke-width:2.05920743942261px"/><polygon points="122.2 213 123.6 211.5 116.1 204.6 123.6 197.7 122.1 196.2 113.1 204.6 122.2 213" style="fill:#aaa"/><path d="M321.5,173.1V158.8A13.9,13.9,0,0,0,307.6,145H295.7a13.8,13.8,0,0,0-13.8,13.8v14.3a27.2,27.2,0,1,0,39.6,0Zm-35.4-14.3a9.7,9.7,0,0,1,9.6-9.7h11.9a9.8,9.8,0,0,1,9.7,9.7v10.6a27.3,27.3,0,0,0-31.2,0ZM301.7,215a23.2,23.2,0,0,1-19.4-36.1,22.1,22.1,0,0,1,3.8-4.3,23,23,0,0,1,31.2,0,22.3,22.3,0,0,1,3.5,4,22.9,22.9,0,0,1,4.1,13.1A23.3,23.3,0,0,1,301.7,215Zm0-42.9a19.6,19.6,0,1,0,19.6,19.6A19.6,19.6,0,0,0,301.7,172.1Zm2.6,22.5v7.3h-3.4v-7.3a5.5,5.5,0,1,1,3.4,0Z" style="fill:#72c594"/><path d="M209,111.1H155.1a12.9,12.9,0,0,1-12.2-16.9l6.2-19.8a23.6,23.6,0,0,1,12.1-13.3H203a23.8,23.8,0,0,1,12,13.3l6.2,19.8A12.9,12.9,0,0,1,209,111.1Z" style="fill:#f16975"/><path d="M209.5,52.8H154.3l17.1-25.9A12.7,12.7,0,0,1,181.9,21h.3a13,13,0,0,1,10.7,6Z" style="fill:#f16975"/><path d="M210.3,54.3c0,1.6-.7,4.1-3.9,6.4h-.1L183.9,77.5a2.7,2.7,0,0,1-1.5.5H182a1.9,1.9,0,0,1-1.2-.4l-11.2-8.1L158,60.9h-.1c-3.4-2.3-4.1-4.8-4.1-6.5a6.8,6.8,0,0,1,1.5-4.2c2.7-3.4,8.2-5.5,13.9-6.6v6.4h25.7V43.5c5.8,1.1,11.3,3.2,14,6.7A7.2,7.2,0,0,1,210.3,54.3Z" style="fill:#fff;stroke:#f16975;stroke-miterlimit:10;stroke-width:5px"/><path d="M197.1,44.9v7.9c.4,5.8-6.9,17.4-15,17.4S167,59.1,167,52.9v-8a71.6,71.6,0,0,1,30.1,0Z" style="fill:#fff;stroke:#f16975;stroke-miterlimit:10;stroke-width:3px"/><path d="M169,50.9a2.5,2.5,0,0,0-2,2.1,2,2,0,0,0,0,1.1l4.2-3.6A9.7,9.7,0,0,0,169,50.9Z" style="fill:#f16975"/><path d="M169,50.9a2.5,2.5,0,0,0-2,2.1,2,2,0,0,0,0,1.1l4.2-3.6A9.7,9.7,0,0,0,169,50.9Z" style="fill:#f16975;opacity:0.730000019073486;isolation:isolate"/><path d="M177.4,51.1a6,6,0,0,0-1.8-.4L168.1,57l.3.3a3.6,3.6,0,0,0,1.7,1.1l1.7.4H173a9,9,0,0,0,4.2-1.3,6.3,6.3,0,0,0,2-4.4A2.6,2.6,0,0,0,177.4,51.1Z" style="fill:#f16975"/><path d="M177.4,51.1a6,6,0,0,0-1.8-.4L168.1,57l.3.3a3.6,3.6,0,0,0,1.7,1.1l1.7.4H173a9,9,0,0,0,4.2-1.3,6.3,6.3,0,0,0,2-4.4A2.6,2.6,0,0,0,177.4,51.1Z" style="fill:#f16975;opacity:0.730000019073486;isolation:isolate"/><path d="M173,50.5l-5.8,4.9.3.6,6.5-5.5Z" style="fill:#f16975"/><path d="M173,50.5l-5.8,4.9.3.6,6.5-5.5Z" style="fill:#f16975;opacity:0.730000019073486;isolation:isolate"/><path d="M186.7,51.1a2.6,2.6,0,0,0-1.7,2,7.4,7.4,0,0,0,.3,1.9l5.4-4.5A17.9,17.9,0,0,0,186.7,51.1Z" style="fill:#f16975"/><path d="M186.7,51.1a2.6,2.6,0,0,0-1.7,2,7.4,7.4,0,0,0,.3,1.9l5.4-4.5A17.9,17.9,0,0,0,186.7,51.1Z" style="fill:#f16975;opacity:0.730000019073486;isolation:isolate"/><path d="M192.5,50.5l-6.7,5.6.4.6,7.2-6.1Z" style="fill:#f16975"/><path d="M192.5,50.5l-6.7,5.6.4.6,7.2-6.1Z" style="fill:#f16975;opacity:0.730000019073486;isolation:isolate"/><path d="M197.2,53a2.7,2.7,0,0,0-2-2.1H195l-8,6.7a7.5,7.5,0,0,0,4,1.3h1.3a8.1,8.1,0,0,0,1.7-.4,3.8,3.8,0,0,0,1.8-1.1A6,6,0,0,0,197.2,53Z" style="fill:#f16975"/><path d="M197.2,53a2.7,2.7,0,0,0-2-2.1H195l-8,6.7a7.5,7.5,0,0,0,4,1.3h1.3a8.1,8.1,0,0,0,1.7-.4,3.8,3.8,0,0,0,1.8-1.1A6,6,0,0,0,197.2,53Z" style="fill:#f16975;opacity:0.730000019073486;isolation:isolate"/><path d="M171.2,50.5,167,54.1a6.9,6.9,0,0,0,.2,1.3l5.8-4.9Z" style="fill:#f16975"/><path d="M174,50.5,167.5,56a2.1,2.1,0,0,0,.6,1l7.5-6.3Z" style="fill:#f16975"/><path d="M190.7,50.5,185.3,55a11.7,11.7,0,0,0,.5,1.1l6.7-5.6Z" style="fill:#f16975"/><path d="M193.4,50.6l-7.2,6.1a3,3,0,0,0,.8.8h0l8-6.7Z" style="fill:#f16975"/><path d="M166.2,51.3c.4,0,.9-.2.9-.3a1.3,1.3,0,0,0-1-.1c-.5,0-.9.1-.9.2S165.7,51.3,166.2,51.3Z" style="fill:#f16975"/><path d="M198,50.8c-.5,0-.9.1-.9.2s.4.3.9.3.9-.1.9-.2S198.5,50.9,198,50.8Z" style="fill:#f16975"/><path d="M189.9,49.7c-3.3.2-6.2,1.4-7.9,1.4s-3.6-1.1-7.9-1.4a42.8,42.8,0,0,0-9.7.6l.2,1.7a1.3,1.3,0,0,1,1.1,1c.4,1.2.3,3.3,1.5,4.6a6.7,6.7,0,0,0,4.5,1.8c1.5.1,4.8-.1,6.7-1.8a8.5,8.5,0,0,0,1.7-2.5c.4-1,.7-2,1.2-2.3h.7a1.6,1.6,0,0,1,1,.2,17.9,17.9,0,0,1,1.4,2.8,7,7,0,0,0,1.5,2c1.7,1.5,5.4,1.8,6.7,1.7a6,6,0,0,0,4.1-1.6,5.2,5.2,0,0,0,1.1-1.9c.3-1,.4-2.1.6-2.8a1.4,1.4,0,0,1,1.1-1.1l.2-1.7A50.6,50.6,0,0,0,189.9,49.7Zm-12.7,7.8a9,9,0,0,1-4.2,1.3h-1.2l-1.7-.4a3.6,3.6,0,0,1-1.7-1.1l-.3-.3a2.1,2.1,0,0,1-.6-1l-.3-.6a6.9,6.9,0,0,1-.2-1.3,2,2,0,0,1,0-1.1,2.5,2.5,0,0,1,2-2.1,9.7,9.7,0,0,1,2.2-.4H174l1.6.2a6,6,0,0,1,1.8.4,2.6,2.6,0,0,1,1.8,2A6.3,6.3,0,0,1,177.2,57.5Zm-12-6.4c0-.1.4-.2.9-.2a1.3,1.3,0,0,1,1,.1c0,.1-.5.3-.9.3S165.3,51.3,165.2,51.1Zm32.8.2c-.5,0-.9-.1-.9-.3s.4-.2.9-.2.9.2.9.3S198.5,51.3,198,51.3Zm-4,7.1a8.1,8.1,0,0,1-1.7.4H191a7.5,7.5,0,0,1-4-1.3h0a3,3,0,0,1-.8-.8l-.4-.6a11.7,11.7,0,0,1-.5-1.1,7.4,7.4,0,0,1-.3-1.9,2.6,2.6,0,0,1,1.7-2,17.9,17.9,0,0,1,4-.6h2.7l1.6.2h.2a2.7,2.7,0,0,1,2,2.1,6,6,0,0,1-1.4,4.3A3.8,3.8,0,0,1,194,58.4Z" style="fill:#f16975"/><path d="M202.2,77H161.9a2.1,2.1,0,0,0-2.2,2v29.4h44.7V79A2.1,2.1,0,0,0,202.2,77Z" style="fill:#fff"/><polyline points="195.1 116 232.1 153 333.3 51.7" style="fill:none;stroke:#f16975;stroke-miterlimit:10"/><polygon points="333.9 57 332.9 56.9 333.1 52 328.1 52.2 328.1 51.2 334.1 51 333.9 57" style="fill:#f16975"/><path d="M40.5,240.7V235L36,227.3h2.1l3.2,5.9h.1l3.3-5.9h2L42.3,235v5.7Z" style="fill:#707070"/><path d="M56.1,234.8v1.5a4.2,4.2,0,0,1-4.4,4.5,4.2,4.2,0,0,1-4.5-4.5v-1.5a4.3,4.3,0,0,1,4.5-4.6A4.3,4.3,0,0,1,56.1,234.8Zm-7.1.1v1.2c0,1.9.9,3.2,2.7,3.2s2.6-1.3,2.6-3.2v-1.2c0-1.9-1-3.2-2.6-3.2S49,233.1,49,234.9Z" style="fill:#707070"/><path d="M67.4,240.7H65.7V239h-.1a3.1,3.1,0,0,1-3.1,1.8c-2.1,0-3.5-.9-3.5-3.3v-7.1h1.7V237a2.1,2.1,0,0,0,2.3,2.3,2.5,2.5,0,0,0,2.6-2.4v-6.5h1.8Z" style="fill:#707070"/><path d="M522.6,240.7V227.3h1.8v13.4Z" style="fill:#707070"/><path d="M528,230.4h1.7v1.9h.1a3,3,0,0,1,3.2-2.1,3.1,3.1,0,0,1,3.4,3.5v7h-1.7v-6.5a2.1,2.1,0,0,0-2.3-2.4c-1.8,0-2.6,1.4-2.6,3.1v5.8H528Z" style="fill:#707070"/><path d="M540.4,227.8h1.8v2.6h2.3v1.5h-2.3v5.9c0,1.2.4,1.5,1.7,1.5h.8v1.5h-1.3c-2.4,0-3-1-3-3v-5.9h-1.5v-1.5h1.5Z" style="fill:#707070"/><path d="M546.9,236.3v-1.5c0-2.9,1.8-4.6,4.3-4.6s4.2,1.8,4.2,4.6V236h-6.7v.5a2.5,2.5,0,0,0,2.6,2.8,2.2,2.2,0,0,0,2.2-1.2h1.8c-.2,1.1-1.4,2.7-4,2.7S546.9,239.1,546.9,236.3Zm6.8-1.6v-.2a2.5,2.5,0,1,0-5,0v.2Z" style="fill:#707070"/><path d="M558.5,230.4h1.8V232h.1a2.7,2.7,0,0,1,2.8-1.8h.6v1.6H563c-1.8,0-2.7,1-2.7,2.4v6.4h-1.8Z" style="fill:#707070"/><path d="M566.2,230.4h1.7v1.9h.1a2.9,2.9,0,0,1,3.1-2.1,3.2,3.2,0,0,1,3.5,3.5v7h-1.7v-6.5a2.1,2.1,0,0,0-2.3-2.4c-1.8,0-2.7,1.4-2.7,3.1v5.8h-1.7Z" style="fill:#707070"/><path d="M577.6,236.3v-1.5c0-2.9,1.8-4.6,4.2-4.6s4.3,1.8,4.3,4.6V236h-6.8v.5a2.5,2.5,0,0,0,2.6,2.8c1.2,0,2.1-.6,2.2-1.2h1.8c-.1,1.1-1.4,2.7-4,2.7S577.6,239.1,577.6,236.3Zm6.7-1.6v-.2a2.5,2.5,0,1,0-5,0v.2Z" style="fill:#707070"/><path d="M589.6,227.8h1.7v2.6h2.3v1.5h-2.3v5.9c0,1.2.4,1.5,1.7,1.5h.8v1.5h-1.3c-2.4,0-2.9-1-2.9-3v-5.9H588v-1.5h1.6Z" style="fill:#707070"/><path d="M164,16.7V10.6h-6.6v6.1h-1.8V3.3h1.8V9H164V3.3h1.8V16.7Z" style="fill:#707070"/><path d="M168.8,13.7c0-1.8,1.3-3,3.6-3h2.7V9.6c0-1.3-.8-1.9-2.1-1.9s-1.9.5-2.1,1.3h-1.7c.2-1.8,1.5-2.8,3.8-2.8s3.9.9,3.9,3.5v7h-1.7V15.3h-.1a3.2,3.2,0,0,1-2.9,1.5A3.1,3.1,0,0,1,168.8,13.7Zm6.3-.5V12h-2.5c-1.4,0-2,.7-2,1.6s1,1.7,2.1,1.7A2.3,2.3,0,0,0,175.1,13.2Z" style="fill:#707070"/><path d="M179.8,10.7a4.1,4.1,0,0,1,4.3-4.5c2.6,0,3.9,1.6,3.9,3.2h-1.7a2,2,0,0,0-2.2-1.6c-1.7,0-2.5,1.1-2.5,2.9v1.6c0,1.8.9,3,2.5,3s2.1-.7,2.3-1.5h1.7c-.1,1.5-1.3,3-4,3s-4.3-1.7-4.3-4.5Z" style="fill:#707070"/><path d="M192.7,16.7h-1.8V2.6h1.8V11h.1l4.1-4.6h2l-4,4.4,4.3,5.9h-2.1l-3.5-4.8-.9,1Z" style="fill:#707070"/><path d="M200.6,12.3V10.8c0-2.9,1.8-4.6,4.2-4.6s4.3,1.8,4.3,4.6V12h-6.8v.5a2.5,2.5,0,0,0,2.6,2.8c1.2,0,2.1-.6,2.2-1.2h1.8c-.1,1.1-1.4,2.7-4,2.7S200.6,15.1,200.6,12.3Zm6.7-1.6v-.2a2.5,2.5,0,1,0-5,0v.2Z" style="fill:#707070"/><path d="M212.2,6.4h1.7V8h.1a2.8,2.8,0,0,1,2.8-1.8h.7V7.9h-.9c-1.8,0-2.7,1-2.7,2.4v6.4h-1.7Z" style="fill:#707070"/><path d="M281.6,227.3h2l3.6,11.2h.1l3.7-11.2h2l-4.8,13.4h-1.9Z" style="fill:#707070"/><path d="M304.4,231.5a3.9,3.9,0,0,1-4.2,4.2h-3.1v5h-1.8V227.3h4.9A4,4,0,0,1,304.4,231.5Zm-4.4-2.6h-2.9v5.2H300a2.4,2.4,0,0,0,2.6-2.6A2.4,2.4,0,0,0,300,228.9Z" style="fill:#707070"/><path d="M307,240.7V227.3h1.7l6.6,10.2h.1V227.3h1.8v13.4h-1.7l-6.6-10.2h-.1v10.2Z" style="fill:#707070"/></svg>